<mxfile host="Electron" modified="2023-04-18T20:45:49.214Z" agent="Mozilla/5.0 (Macintosh; Intel Mac OS X 10_15_7) AppleWebKit/537.36 (KHTML, like Gecko) draw.io/21.1.2 Chrome/106.0.5249.199 Electron/21.4.3 Safari/537.36" etag="MEnJzHvIxi580i0-tV5V" version="21.1.2" type="device">
  <diagram name="Page-1" id="0uBk1NRh_QXTfahNpWGE">
    <mxGraphModel dx="892" dy="583" grid="1" gridSize="10" guides="1" tooltips="1" connect="1" arrows="1" fold="1" page="1" pageScale="1" pageWidth="827" pageHeight="1169" math="0" shadow="0">
      <root>
        <mxCell id="0" />
        <mxCell id="1" parent="0" />
        <mxCell id="z6cH-fZA_FC3KTX_m8WS-25" value="" style="group" vertex="1" connectable="0" parent="1">
          <mxGeometry x="239.80999999999995" y="240" width="41.19" height="68.81" as="geometry" />
        </mxCell>
        <mxCell id="45r6KMX3CsADxtNxQLWL-3" value="" style="shape=or;whiteSpace=wrap;html=1;rotation=90;strokeColor=default;fillColor=#592c05;container=0;" parent="z6cH-fZA_FC3KTX_m8WS-25" vertex="1">
          <mxGeometry x="6.190000000000055" y="51" width="10" height="15.63" as="geometry" />
        </mxCell>
        <mxCell id="z6cH-fZA_FC3KTX_m8WS-5" value="" style="shape=or;whiteSpace=wrap;html=1;rotation=90;strokeColor=default;fillColor=#592c05;container=0;" vertex="1" parent="z6cH-fZA_FC3KTX_m8WS-25">
          <mxGeometry x="16.190000000000055" y="51" width="10" height="15.63" as="geometry" />
        </mxCell>
        <mxCell id="z6cH-fZA_FC3KTX_m8WS-6" value="" style="shape=or;whiteSpace=wrap;html=1;rotation=90;strokeColor=default;fillColor=#592c05;container=0;" vertex="1" parent="z6cH-fZA_FC3KTX_m8WS-25">
          <mxGeometry x="25.190000000000055" y="51" width="10" height="15.63" as="geometry" />
        </mxCell>
        <mxCell id="45r6KMX3CsADxtNxQLWL-2" value="" style="triangle;whiteSpace=wrap;html=1;rotation=-90;strokeWidth=1;strokeColor=default;fillColor=#e7b97c;gradientColor=#d88f3a;gradientDirection=radial;rounded=1;shadow=0;container=0;" parent="z6cH-fZA_FC3KTX_m8WS-25" vertex="1">
          <mxGeometry x="-9.809999999999945" y="9.810000000000002" width="60.81" height="41.19" as="geometry" />
        </mxCell>
        <mxCell id="z6cH-fZA_FC3KTX_m8WS-8" value="&lt;h2 style=&quot;line-height: 0%;&quot;&gt;&lt;font style=&quot;font-weight: normal; font-size: 32px;&quot; data-font-src=&quot;https://fonts.googleapis.com/css?family=Dongle&quot; face=&quot;Dongle&quot;&gt;âŠ†&lt;/font&gt;&lt;br&gt;&lt;/h2&gt;" style="text;html=1;align=center;verticalAlign=middle;resizable=0;points=[];autosize=1;strokeColor=none;fillColor=none;container=0;" vertex="1" parent="z6cH-fZA_FC3KTX_m8WS-25">
          <mxGeometry x="0.3800000000000523" y="18.810000000000002" width="40" height="50" as="geometry" />
        </mxCell>
      </root>
    </mxGraphModel>
  </diagram>
</mxfile>
